<svg xmlns="http://www.w3.org/2000/svg" viewBox="0 0 64 64" role="img" aria-labelledby="title desc">
  <title id="title">AlphaStudio mark</title>
  <desc id="desc">A connected studio node forming the letter A.</desc>
  <defs>
    <linearGradient id="surface" x1="8" y1="6" x2="56" y2="60" gradientUnits="userSpaceOnUse">
      <stop stop-color="#A88BFF"/>
      <stop offset=".48" stop-color="#6E79FF"/>
      <stop offset="1" stop-color="#39DDE7"/>
    </linearGradient>
    <linearGradient id="shine" x1="16" y1="12" x2="47" y2="51" gradientUnits="userSpaceOnUse">
      <stop stop-color="#fff"/>
      <stop offset="1" stop-color="#E9FCFF" stop-opacity=".82"/>
    </linearGradient>
  </defs>
  <rect x="2" y="2" width="60" height="60" rx="18" fill="url(#surface)"/>
  <path d="M13 22C13 16.477 17.477 12 23 12h18c5.523 0 10 4.477 10 10v20c0 5.523-4.477 10-10 10H23c-5.523 0-10-4.477-10-10V22Z" fill="#08101E" fill-opacity=".16" stroke="#fff" stroke-opacity=".22"/>
  <path d="M20 45 31.2 18.5a1.1 1.1 0 0 1 2 0L44 45M25.2 34.5h13.6" fill="none" stroke="url(#shine)" stroke-width="4" stroke-linecap="round" stroke-linejoin="round"/>
  <circle cx="20" cy="45" r="3.4" fill="#fff"/>
  <circle cx="32.2" cy="16.5" r="3.4" fill="#fff"/>
  <circle cx="44" cy="45" r="3.4" fill="#E9FCFF"/>
  <circle cx="32" cy="34.5" r="2.35" fill="#08101E" stroke="#fff" stroke-width="1.5"/>
</svg>
