<svg xmlns="http://www.w3.org/2000/svg" viewBox="0 0 480 300" role="img" aria-labelledby="title desc">
  <title id="title">Conversion failed</title><desc id="desc">A file conversion link interrupted by an error node.</desc>
  <defs><linearGradient id="g" x1="129" y1="58" x2="351" y2="251"><stop stop-color="#FF7188"/><stop offset="1" stop-color="#9B7CFF"/></linearGradient></defs>
  <path d="M58 151h76M346 151h76M240 31v45M240 226v43" stroke="#7B88AD" stroke-opacity=".28" stroke-width="2"/>
  <circle cx="53" cy="151" r="6" fill="#FF7188"/><circle cx="427" cy="151" r="6" fill="#9B7CFF"/><circle cx="240" cy="26" r="5" fill="#5D8DFF"/><circle cx="240" cy="274" r="5" fill="#49DBE8"/>
  <rect x="126" y="49" width="228" height="204" rx="43" fill="#FF7188" fill-opacity=".05" stroke="#FF7188" stroke-opacity=".22" stroke-width="3"/>
  <rect x="151" y="90" width="91" height="121" rx="18" fill="#121727" fill-opacity=".62" stroke="#9B7CFF" stroke-opacity=".62" stroke-width="4"/>
  <path d="M212 90v30h30M175 151h43M175 178h33" stroke="#B7C3E1" stroke-width="7" stroke-linecap="round" opacity=".7"/>
  <rect x="271" y="90" width="58" height="121" rx="18" fill="#121727" fill-opacity=".35" stroke="#FF7188" stroke-opacity=".55" stroke-width="4" stroke-dasharray="9 8"/>
  <path d="M244 129h38l-12-12M282 173h-38l12 12" fill="none" stroke="#9B7CFF" stroke-width="8" stroke-linecap="round" stroke-linejoin="round"/>
  <circle cx="300" cy="151" r="42" fill="#121727" stroke="url(#g)" stroke-width="7"/>
  <path d="m282 133 36 36M318 133l-36 36" stroke="#FF7188" stroke-width="10" stroke-linecap="round"/>
</svg>
