<svg xmlns="http://www.w3.org/2000/svg">
  <symbol id="icon-dashboard" viewBox="0 0 24 24"><rect x="3" y="3" width="7" height="7" rx="2"/><rect x="14" y="3" width="7" height="4" rx="2"/><rect x="14" y="10" width="7" height="11" rx="2"/><rect x="3" y="13" width="7" height="8" rx="2"/></symbol>
  <symbol id="icon-converter" viewBox="0 0 24 24"><path d="M5 7h12l-3-3M19 7l-3 3M19 17H7l3 3M5 17l3-3"/><path d="M12 10v4"/></symbol>
  <symbol id="icon-pdf" viewBox="0 0 24 24"><path d="M7 3h7l4 4v14H7a2 2 0 0 1-2-2V5a2 2 0 0 1 2-2Z"/><path d="M14 3v5h5M8 16v-4h2a1.5 1.5 0 1 1 0 3H8m5 1v-4h1.5a2 2 0 0 1 0 4H13m4 0v-4h3M17 14h2"/></symbol>
  <symbol id="icon-qr" viewBox="0 0 24 24"><rect x="3" y="3" width="7" height="7" rx="1"/><rect x="14" y="3" width="7" height="7" rx="1"/><rect x="3" y="14" width="7" height="7" rx="1"/><path d="M14 14h3v3h-3zM18 18h3v3h-3zM18 14h3M14 20h2"/></symbol>
  <symbol id="icon-image" viewBox="0 0 24 24"><rect x="3" y="3" width="18" height="18" rx="3"/><circle cx="8.5" cy="8.5" r="1.5"/><path d="m21 15-4.5-4.5L6 21M11 16l2-2"/></symbol>
  <symbol id="icon-media" viewBox="0 0 24 24"><rect x="3" y="4" width="18" height="16" rx="3"/><path d="m10 9 5 3-5 3Z"/><path d="M7 4v3M17 4v3M7 17v3M17 17v3"/></symbol>
  <symbol id="icon-audio" viewBox="0 0 24 24"><path d="M3 13h3l2-6 3 12 3-14 3 10h4"/><path d="M4 20h16"/></symbol>
  <symbol id="icon-archive" viewBox="0 0 24 24"><path d="M4 7h16v13H4zM4 7l2-3h12l2 3M9 11h6"/><path d="M12 14v3m-2-1 2 2 2-2"/></symbol>
  <symbol id="icon-text-ocr" viewBox="0 0 24 24"><path d="M8 3H3v5M16 3h5v5M8 21H3v-5M16 21h5v-5M7 12h10"/><path d="M9 8h6M12 8v8M9 16h6"/></symbol>
  <symbol id="icon-security" viewBox="0 0 24 24"><path d="M12 3 20 6v6c0 5-3.3 8.2-8 10-4.7-1.8-8-5-8-10V6l8-3Z"/><path d="m8.5 12 2.2 2.2 4.8-4.8"/></symbol>
  <symbol id="icon-developer" viewBox="0 0 24 24"><path d="m8 8-5 4 5 4M16 8l5 4-5 4M14 4l-4 16"/></symbol>
  <symbol id="icon-color" viewBox="0 0 24 24"><path d="M12 3a9 9 0 1 0 0 18h1.2a2 2 0 0 0 1.6-3.2 2 2 0 0 1 1.6-3.2H18A3 3 0 0 0 21 11.5C20.5 6.7 16.6 3 12 3Z"/><circle cx="7.5" cy="10" r="1"/><circle cx="10" cy="6.8" r="1"/><circle cx="14" cy="6.8" r="1"/></symbol>
  <symbol id="icon-activity" viewBox="0 0 24 24"><path d="M3 13h4l2-6 4 11 3-7 2 2h3"/><path d="M4 4h16v16H4z"/></symbol>
  <symbol id="icon-profile" viewBox="0 0 24 24"><circle cx="12" cy="8" r="4"/><path d="M4 21c.8-4.7 3.7-7 8-7s7.2 2.3 8 7"/></symbol>
  <symbol id="icon-settings" viewBox="0 0 24 24"><circle cx="12" cy="12" r="3"/><path d="M12 2v3M12 19v3M4.9 4.9 7 7M17 17l2.1 2.1M2 12h3M19 12h3M4.9 19.1 7 17M17 7l2.1-2.1"/><circle cx="12" cy="12" r="7"/></symbol>
  <symbol id="icon-tools-manager" viewBox="0 0 24 24"><path d="M14.5 6.5a4 4 0 0 0-5-5l2.2 2.2-2 2L7.5 3.5a4 4 0 0 0 5 5L20 16l-4 4-7.5-7.5a4 4 0 0 1-5-5l2.2 2.2 2-2L5.5 5.5a4 4 0 0 1 5-5"/></symbol>

  <symbol id="icon-uploading" viewBox="0 0 24 24"><path d="M12 16V4M7 9l5-5 5 5M5 20h14"/><circle cx="19" cy="5" r="2"/></symbol>
  <symbol id="icon-inspecting" viewBox="0 0 24 24"><circle cx="10.5" cy="10.5" r="6.5"/><path d="m20 20-4.8-4.8M10.5 7v3.5l2.5 1.5"/></symbol>
  <symbol id="icon-queued" viewBox="0 0 24 24"><circle cx="12" cy="12" r="9"/><path d="M12 7v5l3 2"/><path d="M4 4l2 2M20 4l-2 2"/></symbol>
  <symbol id="icon-converting" viewBox="0 0 24 24"><path d="M20 11a8 8 0 1 0-2.3 5.7M20 4v7h-7"/><path d="m9 9 6 6M15 9l-6 6"/></symbol>
  <symbol id="icon-completed" viewBox="0 0 24 24"><circle cx="12" cy="12" r="9"/><path d="m7.5 12 3 3 6-6"/></symbol>
  <symbol id="icon-warning" viewBox="0 0 24 24"><path d="M11.1 4.2 2.7 19a1.3 1.3 0 0 0 1.1 2h16.4a1.3 1.3 0 0 0 1.1-2L12.9 4.2a1 1 0 0 0-1.8 0Z"/><path d="M12 9v5M12 17.5v.1"/></symbol>
  <symbol id="icon-failed" viewBox="0 0 24 24"><circle cx="12" cy="12" r="9"/><path d="m8.5 8.5 7 7M15.5 8.5l-7 7"/></symbol>
  <symbol id="icon-cancelled" viewBox="0 0 24 24"><circle cx="12" cy="12" r="9"/><path d="M8 12h8"/></symbol>
  <symbol id="icon-unavailable" viewBox="0 0 24 24"><path d="M7 3h10v5l2 2v9a2 2 0 0 1-2 2H7a2 2 0 0 1-2-2v-9l2-2V3Z"/><path d="M7 8h10M9 13l6 6M15 13l-6 6"/></symbol>
  <symbol id="icon-offline" viewBox="0 0 24 24"><path d="M5 9a10 10 0 0 1 14 0M8.5 12.5a5 5 0 0 1 7 0M12 17v.1M3 3l18 18"/></symbol>

  <symbol id="icon-scan" viewBox="0 0 24 24"><path d="M8 3H3v5M16 3h5v5M8 21H3v-5M16 21h5v-5M7 12h10"/></symbol>
  <symbol id="icon-droplet" viewBox="0 0 24 24"><path d="M12 2s6 6.1 6 11a6 6 0 0 1-12 0c0-4.9 6-11 6-11Z"/></symbol>
  <symbol id="icon-pen" viewBox="0 0 24 24"><path d="m4 20 4.2-1 10-10-3.2-3.2-10 10L4 20Zm9.8-13 3.2 3.2"/></symbol>
  <symbol id="icon-refresh" viewBox="0 0 24 24"><path d="M20 11a8 8 0 1 0-2.3 5.7M20 4v7h-7"/></symbol>
  <symbol id="icon-wand" viewBox="0 0 24 24"><path d="m4 20 11-11M14 4l1-2 1 2 2 1-2 1-1 2-1-2-2-1 2-1ZM18 14l1-2 1 2 2 1-2 1-1 2-1-2-2-1 2-1Z"/></symbol>
  <symbol id="icon-eye" viewBox="0 0 24 24"><path d="M2 12s4-7 10-7 10 7 10 7-4 7-10 7S2 12 2 12Z"/><circle cx="12" cy="12" r="3"/></symbol>
  <symbol id="icon-key" viewBox="0 0 24 24"><circle cx="8" cy="15" r="4"/><path d="m11 12 9-9M17 6l3 3M14 9l3 3"/></symbol>
  <symbol id="icon-terminal" viewBox="0 0 24 24"><rect x="3" y="4" width="18" height="16" rx="2"/><path d="m7 9 3 3-3 3M13 15h4"/></symbol>
  <symbol id="icon-sparkles" viewBox="0 0 24 24"><path d="m12 3 1.4 3.6L17 8l-3.6 1.4L12 13l-1.4-3.6L7 8l3.6-1.4L12 3ZM5 14l.8 2.2L8 17l-2.2.8L5 20l-.8-2.2L2 17l2.2-.8L5 14ZM19 13l.9 2.1L22 16l-2.1.9L19 19l-.9-2.1L16 16l2.1-.9L19 13Z"/></symbol>
  <symbol id="icon-file" viewBox="0 0 24 24"><path d="M14 2H6a2 2 0 0 0-2 2v16a2 2 0 0 0 2 2h12a2 2 0 0 0 2-2V8Z"/><path d="M14 2v6h6M8 13h8M8 17h6"/></symbol>
  <symbol id="icon-search" viewBox="0 0 24 24"><circle cx="11" cy="11" r="7"/><path d="m20 20-4-4"/></symbol>
  <symbol id="icon-menu" viewBox="0 0 24 24"><path d="M4 7h16M4 12h16M4 17h16"/></symbol>
  <symbol id="icon-close" viewBox="0 0 24 24"><path d="m6 6 12 12M18 6 6 18"/></symbol>
  <symbol id="icon-moon" viewBox="0 0 24 24"><path d="M20 15.5A8 8 0 0 1 8.5 4 8 8 0 1 0 20 15.5Z"/></symbol>
  <symbol id="icon-sun" viewBox="0 0 24 24"><circle cx="12" cy="12" r="4"/><path d="M12 2v2M12 20v2M4.93 4.93l1.42 1.42M17.66 17.66l1.41 1.41M2 12h2M20 12h2M4.93 19.07l1.42-1.42M17.66 6.34l1.41-1.41"/></symbol>
  <symbol id="icon-upload" viewBox="0 0 24 24"><path d="M12 16V4M7 9l5-5 5 5M5 20h14"/></symbol>
  <symbol id="icon-plus" viewBox="0 0 24 24"><path d="M12 5v14M5 12h14"/></symbol>
  <symbol id="icon-arrow" viewBox="0 0 24 24"><path d="M5 12h14M14 7l5 5-5 5"/></symbol>
  <symbol id="icon-layers" viewBox="0 0 24 24"><path d="m12 2 9 5-9 5-9-5 9-5Z"/><path d="m3 12 9 5 9-5M3 17l9 5 9-5"/></symbol>
  <symbol id="icon-scissors" viewBox="0 0 24 24"><circle cx="6" cy="7" r="3"/><circle cx="6" cy="17" r="3"/><path d="m8.6 8.5 10.9 6.2M8.6 15.5 19.5 9.3"/></symbol>
  <symbol id="icon-minimize" viewBox="0 0 24 24"><path d="M8 3H3v5M16 3h5v5M8 21H3v-5M16 21h5v-5M3 3l6 6M21 3l-6 6M3 21l6-6M21 21l-6-6"/></symbol>
  <symbol id="icon-sort" viewBox="0 0 24 24"><path d="M8 6h13M8 12h9M8 18h5M3 4l2 2 2-2M5 6v12M3 16l2 2 2-2"/></symbol>
  <symbol id="icon-lock" viewBox="0 0 24 24"><rect x="4" y="10" width="16" height="11" rx="2"/><path d="M8 10V7a4 4 0 0 1 8 0v3"/></symbol>
  <symbol id="icon-copy" viewBox="0 0 24 24"><rect x="8" y="8" width="12" height="12" rx="2"/><path d="M16 8V6a2 2 0 0 0-2-2H6a2 2 0 0 0-2 2v8a2 2 0 0 0 2 2h2"/></symbol>
  <symbol id="icon-download" viewBox="0 0 24 24"><path d="M12 3v12M7 10l5 5 5-5M5 21h14"/></symbol>
  <symbol id="icon-check" viewBox="0 0 24 24"><path d="m5 12 4 4L19 6"/></symbol>
  <symbol id="icon-trash" viewBox="0 0 24 24"><path d="M4 7h16M9 7V4h6v3M8 11v6M12 11v6M16 11v6M6 7l1 14h10l1-14"/></symbol>
  <symbol id="icon-link" viewBox="0 0 24 24"><path d="M10 13a5 5 0 0 0 7.07 0l1.41-1.41a5 5 0 0 0-7.07-7.07L10 5M14 11a5 5 0 0 0-7.07 0L5.5 12.43a5 5 0 0 0 7.07 7.07L14 19"/></symbol>
</svg>
